<svg width="800" height="800" viewBox="0 0 800 800" fill="none" xmlns="http://www.w3.org/2000/svg">
<path d="M569.591 111.591C570.355 112.048 571.119 112.505 571.907 112.976C583.087 119.702 593.588 127.071 603.808 135.178C605.346 136.397 606.897 137.601 608.45 138.802C614.112 143.219 619.409 147.994 624.661 152.884C627.225 155.252 629.834 157.55 632.466 159.841C642.771 169.101 652.126 179.64 660.591 190.591C661.133 191.288 661.676 191.985 662.234 192.703C686.563 224.097 705.501 258.689 717.591 296.591C718.033 297.976 718.033 297.976 718.485 299.39C725.72 322.366 730.172 345.637 732.591 369.591C732.663 370.299 732.735 371.007 732.809 371.737C739.266 439.372 722.735 511.405 687.591 569.591C687.134 570.355 686.677 571.119 686.206 571.907C679.479 583.087 672.111 593.588 664.004 603.808C662.785 605.346 661.581 606.897 660.38 608.45C655.962 614.112 651.188 619.409 646.298 624.661C643.929 627.225 641.632 629.834 639.341 632.466C630.081 642.771 619.542 652.126 608.591 660.591C607.894 661.133 607.197 661.676 606.479 662.234C575.085 686.563 540.493 705.501 502.591 717.591C501.667 717.886 500.744 718.181 499.792 718.485C476.815 725.72 453.545 730.172 429.591 732.591C428.883 732.663 428.174 732.735 427.445 732.809C359.81 739.266 287.777 722.735 229.591 687.591C228.827 687.134 228.062 686.677 227.275 686.206C216.095 679.479 205.594 672.111 195.374 664.004C193.835 662.785 192.285 661.581 190.731 660.38C185.07 655.962 179.773 651.188 174.521 646.298C171.957 643.929 169.348 641.632 166.716 639.341C156.41 630.081 147.056 619.542 138.591 608.591C138.048 607.894 137.506 607.197 136.947 606.479C112.619 575.085 93.6807 540.493 81.5909 502.591C81.2958 501.667 81.0008 500.744 80.6968 499.792C73.4616 476.815 69.0093 453.545 66.5909 429.591C66.5188 428.883 66.4468 428.174 66.3726 427.445C59.9157 359.81 76.4468 287.777 111.591 229.591C112.048 228.827 112.505 228.062 112.976 227.275C119.702 216.095 127.071 205.594 135.178 195.374C136.397 193.835 137.601 192.285 138.802 190.731C143.219 185.07 147.994 179.773 152.884 174.521C155.252 171.957 157.55 169.348 159.841 166.716C169.101 156.41 179.64 147.056 190.591 138.591C191.636 137.777 191.636 137.777 192.703 136.947C224.097 112.619 258.689 93.6807 296.591 81.5909C297.514 81.2958 298.438 81.0008 299.39 80.6968C322.366 73.4616 345.637 69.0093 369.591 66.5909C370.299 66.5188 371.007 66.4468 371.737 66.3726C439.372 59.9157 511.405 76.4468 569.591 111.591ZM355.591 136.591C354.672 136.741 353.753 136.892 352.806 137.046C310.525 144.056 268.77 162.461 235.591 189.591C234.699 190.292 233.807 190.993 232.888 191.716C191.996 224.238 161.258 268.724 145.591 318.591C145.189 319.859 145.189 319.859 144.779 321.152C141.724 330.919 139.199 340.713 137.341 350.778C137.114 352.004 137.114 352.004 136.883 353.254C134.24 368.545 133.21 383.714 133.278 399.216C133.28 400.087 133.282 400.959 133.284 401.856C133.333 415.965 134.105 429.679 136.591 443.591C136.741 444.51 136.892 445.429 137.046 446.376C144.056 488.657 162.461 530.412 189.591 563.591C190.292 564.483 190.993 565.375 191.716 566.294C224.238 607.186 268.724 637.924 318.591 653.591C319.859 653.993 319.859 653.993 321.152 654.403C330.919 657.457 340.713 659.983 350.778 661.841C352.004 662.068 352.004 662.068 353.254 662.299C368.545 664.941 383.714 665.971 399.216 665.903C400.087 665.902 400.959 665.9 401.856 665.898C415.965 665.848 429.679 665.077 443.591 662.591C444.51 662.441 445.429 662.29 446.376 662.135C488.657 655.126 530.412 636.721 563.591 609.591C564.483 608.89 565.375 608.188 566.294 607.466C595.812 583.989 619.113 554.909 636.591 521.591C636.998 520.827 637.405 520.062 637.825 519.275C649.967 496.229 658.313 470.26 662.591 444.591C662.75 443.682 662.91 442.774 663.074 441.837C667.796 413.9 667.571 383.463 662.591 355.591C662.441 354.672 662.29 353.753 662.135 352.806C655.126 310.525 636.721 268.77 609.591 235.591C608.89 234.699 608.188 233.807 607.466 232.888C574.944 191.996 530.458 161.258 480.591 145.591C479.746 145.323 478.9 145.055 478.029 144.779C468.263 141.724 458.469 139.199 448.403 137.341C447.586 137.19 446.769 137.039 445.927 136.883C430.637 134.24 415.467 133.21 399.966 133.278C398.659 133.281 398.659 133.281 397.325 133.284C383.216 133.333 369.503 134.105 355.591 136.591Z" fill="black"/>
<path d="M392.362 266.115C413.989 265.326 434.859 268.621 455.438 275.198C456.142 275.423 456.847 275.648 457.574 275.88C505.791 291.751 549.827 326.756 582.438 365.198C583.323 366.197 584.21 367.196 585.098 368.194C594.723 379.126 600.94 388.519 600.77 403.467C599.789 414.488 593.631 422.24 586.438 430.198C585.593 431.139 584.749 432.08 583.879 433.049C582.18 434.927 580.473 436.796 578.758 438.659C576.853 440.743 575.011 442.856 573.188 445.01C565.332 454.042 556.606 462.512 547.438 470.198C546.545 470.979 545.653 471.76 544.734 472.565C500.646 510.981 445.586 537.706 386.09 533.959C360.295 531.865 335.161 523.431 312.434 511.266C311.069 510.536 309.7 509.814 308.328 509.098C291.484 500.312 275.836 489.592 261.438 477.198C260.381 476.313 259.324 475.429 258.266 474.545C251.502 468.867 244.95 462.98 238.5 456.948C237.802 456.299 237.105 455.649 236.386 454.981C232.366 451.187 228.64 447.252 225.043 443.055C222.819 440.483 220.466 438.038 218.125 435.573C208.831 425.529 199.9 415.077 199 400.885C199.906 382.445 212.98 370.433 224.913 357.824C226.464 356.169 227.991 354.494 229.512 352.811C235.505 346.19 241.694 340.068 248.438 334.198C250.021 332.74 251.605 331.282 253.188 329.823C268.814 315.8 286.178 303.532 304.438 293.198C305.076 292.831 305.714 292.464 306.371 292.086C332.417 277.213 362.275 267.405 392.362 266.115ZM294.785 384.069C292.612 386.04 290.408 387.968 288.188 389.885C284.78 392.849 281.591 395.965 278.438 399.198C282.011 407.739 291.442 414.353 298.438 420.198C298.971 420.65 299.504 421.102 300.053 421.568C321.645 439.833 345.867 455.807 373.438 463.198C374.638 463.534 375.838 463.871 377.074 464.217C406.081 471.206 434.888 463.038 460.438 449.198C461.03 448.886 461.622 448.574 462.232 448.253C472.42 442.887 481.41 436.297 490.438 429.198C491.922 428.036 491.922 428.036 493.438 426.85C503.319 418.936 512.592 410.249 521.438 401.198C520.142 398.349 518.772 396.276 516.566 394.061C515.998 393.488 515.429 392.916 514.844 392.326C514.235 391.727 513.627 391.127 513 390.51C512.37 389.887 511.741 389.263 511.092 388.621C505.811 383.45 500.284 378.721 494.438 374.198C492.931 373.001 492.931 373.001 491.395 371.78C424.624 319.043 356.292 328.02 294.785 384.069Z" fill="#4C7ABB"/>
<path d="M421.122 372.015C428.424 377.257 433.215 384.602 435.372 393.328C436.768 404.445 434.564 414.246 427.684 423.203C420.266 431.003 411.172 434.263 400.684 434.703C389.65 434.439 381.251 431.368 373.395 423.551C367.118 416.655 363.602 408.251 364.036 398.805C365.717 386.413 370.803 378.779 380.309 370.89C393.51 364.156 408.4 364.234 421.122 372.015Z" fill="#4C7ABB"/>
<path d="M150.375 103.182C156.948 108.617 163.004 114.667 169.018 120.705C169.827 121.513 170.636 122.321 171.47 123.154C174.15 125.832 176.826 128.514 179.502 131.196C181.434 133.129 183.367 135.061 185.3 136.993C189.445 141.138 193.589 145.284 197.731 149.432C203.719 155.429 209.711 161.423 215.703 167.416C225.427 177.143 235.149 186.871 244.87 196.601C254.307 206.047 263.745 215.492 273.184 224.936C273.767 225.519 274.35 226.102 274.95 226.703C277.874 229.629 280.799 232.554 283.723 235.479C307.943 259.71 332.16 283.945 356.375 308.182C357.57 307.772 358.765 307.362 359.996 306.94C361.601 306.395 363.207 305.851 364.812 305.307C365.596 305.038 366.379 304.768 367.186 304.491C393.314 295.674 420.98 297.832 445.688 309.995C452.406 313.431 458.516 317.407 464.375 322.182C465.214 322.858 466.053 323.533 466.918 324.229C485.896 340.353 497.027 363.738 500.375 388.182C500.651 391.938 500.709 395.667 500.688 399.432C500.683 400.433 500.679 401.433 500.675 402.465C500.499 414.068 498.236 424.585 494.242 435.498C493.956 436.384 493.67 437.27 493.375 438.182C493.037 439.056 492.699 439.929 492.351 440.83C492.384 445.489 494.327 446.965 497.51 450.197C498.295 450.959 499.081 451.72 499.89 452.505C500.71 453.328 501.531 454.151 502.376 454.999C504.66 457.282 506.958 459.549 509.263 461.81C511.745 464.251 514.207 466.712 516.671 469.172C520.945 473.433 525.231 477.68 529.526 481.92C535.744 488.059 541.939 494.219 548.129 500.385C558.183 510.399 568.251 520.399 578.329 530.389C578.932 530.987 579.535 531.585 580.157 532.201C582.601 534.624 585.046 537.047 587.49 539.47C594.208 546.129 600.924 552.791 607.639 559.454C608.24 560.05 608.841 560.646 609.46 561.26C619.488 571.211 629.507 581.173 639.519 591.141C645.693 597.286 651.876 603.421 658.071 609.544C662.32 613.745 666.561 617.954 670.794 622.17C673.235 624.6 675.68 627.026 678.136 629.441C680.802 632.066 683.452 634.707 686.098 637.351C687.256 638.48 687.256 638.48 688.438 639.632C696.026 647.28 700.439 655.46 700.688 666.307C700.612 675.853 697.238 683.926 690.73 690.959C683.881 697.558 676.339 700.334 666.875 700.682C646.42 699.883 633.837 681.757 620.435 668.244C618.522 666.319 616.609 664.396 614.696 662.472C611.122 658.877 607.548 655.282 603.976 651.685C596.964 644.627 589.945 637.576 582.923 630.527C581.815 629.415 580.707 628.303 579.599 627.191C577.357 624.94 575.115 622.69 572.873 620.439C567.128 614.672 561.382 608.904 555.637 603.135C555.061 602.557 554.485 601.978 553.892 601.383C544.534 591.985 535.188 582.577 525.845 573.166C516.241 563.492 506.623 553.832 496.994 544.183C491.06 538.236 485.136 532.278 479.225 526.306C475.181 522.222 471.125 518.151 467.058 514.09C464.711 511.745 462.372 509.393 460.044 507.03C457.522 504.472 454.981 501.936 452.432 499.404C451.698 498.649 450.963 497.893 450.207 497.115C446.338 493.106 446.338 493.106 441.087 492.161C440.192 492.498 439.297 492.835 438.375 493.182C437.238 493.552 436.101 493.922 434.93 494.303C433.715 494.738 432.501 495.172 431.25 495.62C407.038 503.84 380.042 502.127 357.012 491.018C355.798 490.41 354.585 489.798 353.375 489.182C352.33 488.659 351.284 488.135 350.207 487.596C327.446 475.268 311.074 453.705 303.375 429.182C297.383 407.406 298.121 385.907 305.492 364.608C305.77 363.791 306.048 362.974 306.334 362.132C307.009 360.147 307.691 358.164 308.375 356.182C307.947 355.756 307.519 355.329 307.078 354.89C281.706 329.607 256.344 304.314 230.996 279.008C227.952 275.968 224.908 272.929 221.864 269.891C221.258 269.286 220.652 268.681 220.027 268.057C210.216 258.263 200.398 248.477 190.577 238.693C180.499 228.652 170.429 218.604 160.365 208.548C154.156 202.345 147.941 196.147 141.718 189.957C137.451 185.711 133.191 181.457 128.937 177.198C126.482 174.741 124.025 172.288 121.559 169.843C118.884 167.188 116.222 164.521 113.563 161.851C112.784 161.084 112.006 160.318 111.204 159.528C104.133 152.377 99.5622 144.346 99 134.057C99.3357 123.686 102.871 115.522 110.152 108.205C121.529 97.8486 136.654 96.3141 150.375 103.182Z" fill="#4C7ABB"/>
</svg>
