<svg width="26" height="26" viewBox="0 0 26 26" fill="none" xmlns="http://www.w3.org/2000/svg">
<g clip-path="url(#clip0_4709_129)">
<path d="M1.68159 2L24.3179 26M10.2888 11.2182C9.63152 11.9381 9.22703 12.9189 9.22703 14C9.22703 16.2092 10.9162 18 12.9997 18C14.0341 18 14.9712 17.5587 15.6527 16.844M6.0831 6.86287C3.69459 8.53379 1.8753 11.0453 1 14C2.60246 19.4095 7.36906 23.3333 13 23.3333C15.5012 23.3333 17.8318 22.5592 19.7904 21.2245M11.7422 4.73252C12.1559 4.68897 12.5755 4.66667 13 4.66667C18.631 4.66667 23.3976 8.59055 25 14C24.647 15.192 24.1402 16.3117 23.5045 17.3333" stroke="#273047" stroke-width="2" stroke-linecap="round" stroke-linejoin="round"/>
</g>
<defs>
<clipPath id="clip0_4709_129">
<rect width="26" height="26" fill="white"/>
</clipPath>
</defs>
</svg>
